<?xml version="1.0" encoding="UTF-8"?><svg id="katman_1" xmlns="http://www.w3.org/2000/svg" viewBox="0 0 85.04 85.04"><defs><style>.cls-1{stroke-linecap:round;stroke-width:1.23px;}.cls-1,.cls-2{fill:none;stroke:#e2071f;stroke-miterlimit:10;}.cls-3{fill:#e2071f;}</style></defs><path class="cls-3" d="M72.29,28.38c0-1.6,1.29-2.89,2.89-2.89s2.88,1.29,2.88,2.89-1.29,2.89-2.88,2.89-2.89-1.29-2.89-2.89"/><path class="cls-3" d="M78.55,32.38c1.96.18,3.49,1.83,3.49,3.83v8c0,.62-.5,1.12-1.12,1.12s-1.12-.5-1.12-1.12v-6.87c0-.26-.07-.61-.55-.61-.33,0-.39.35-.41.57v20.6c0,.89-.72,1.61-1.61,1.61s-1.61-.72-1.61-1.61v-11.87c0-.13-.05-.47-.46-.47h0c-.41,0-.46.34-.47.47v11.87c0,.89-.72,1.61-1.61,1.61s-1.61-.72-1.61-1.61v-20.6c-.01-.22-.08-.57-.4-.57-.47,0-.54.35-.54.61v6.87c0,.62-.5,1.12-1.12,1.12s-1.12-.5-1.12-1.12v-8c0-2.01,1.54-3.66,3.5-3.83.06,0,.13-.02.21-.02h6.31c.08,0,.15,0,.22.02"/><path class="cls-3" d="M55.12,29.9c0-1.51-1.22-2.74-2.73-2.74s-2.74,1.23-2.74,2.74,1.22,2.73,2.74,2.73,2.73-1.22,2.73-2.73"/><path class="cls-3" d="M46.88,36.09l-2.27,7.4s-.4,1.36.75,1.7c1.14.34,1.49-.98,1.49-.98l1.83-6.17s.1-.48.46-.37c.36.1.22.61.22.61l-3.19,11.57h2.97v8.29c0,.78.64,1.42,1.43,1.42s1.42-.64,1.42-1.42v-8.29h.81v8.29c0,.78.63,1.42,1.42,1.42s1.43-.64,1.43-1.42v-8.29h2.97l-3.19-11.57s-.13-.51.22-.61c.36-.1.46.37.46.37l1.83,6.17s.35,1.32,1.49.98c1.15-.34.75-1.7.75-1.7l-2.27-7.4s-.81-2.14-2.61-2.14h-5.79c-1.8,0-2.61,2.14-2.61,2.14"/><path class="cls-3" d="M38.75,29.9c0-1.51-1.22-2.74-2.73-2.74s-2.73,1.23-2.73,2.74,1.22,2.73,2.73,2.73,2.73-1.22,2.73-2.73"/><path class="cls-3" d="M30.51,36.09l-2.27,7.4s-.41,1.36.75,1.7c1.14.34,1.49-.98,1.49-.98l1.83-6.17s.1-.48.46-.37c.36.1.22.61.22.61l-3.19,11.57h2.97v8.29c0,.78.64,1.42,1.43,1.42s1.42-.64,1.42-1.42v-8.29h.81v8.29c0,.78.63,1.42,1.42,1.42s1.42-.64,1.42-1.42v-8.29h2.97l-3.19-11.57s-.13-.51.22-.61c.36-.1.46.37.46.37l1.83,6.17s.35,1.32,1.49.98c1.15-.34.75-1.7.75-1.7l-2.27-7.4s-.81-2.14-2.61-2.14h-5.79c-1.8,0-2.61,2.14-2.61,2.14"/><path class="cls-3" d="M64.3,45.2c1.26,0,2.27-1.02,2.27-2.28s-1.02-2.27-2.27-2.27-2.28,1.02-2.28,2.27,1.02,2.28,2.28,2.28"/><path class="cls-3" d="M58.85,52.27c-.11.27-.2.83.33,1.08.63.29.98-.32.98-.32l1.24-3.94s.21-.26.21,0v9.29h0c0,.65.52,1.17,1.17,1.17s1.17-.52,1.17-1.17v-3.67s-.07-.52.35-.52.35.52.35.52v3.67c0,.65.52,1.17,1.17,1.17s1.17-.52,1.17-1.17v-9.29c0-.27.14-.08.14-.08l.97,2.7s.42,1.21.55,1.26c.44.18.94-.02,1.13-.47.12-.29.07-.6-.09-.83h0c-.03-.1-1.45-3.58-1.62-4.07-.51-1.5-1.45-1.49-2.35-1.51-.9-.02-1.44,0-1.44,0,0,0-.57-.02-1.76.01-1.18.04-1.56.65-2.87,4.01-.19.48-.82,2.05-.83,2.15h0Z"/><path class="cls-3" d="M14.34,28.38c0-1.6-1.3-2.89-2.89-2.89s-2.88,1.29-2.88,2.89,1.29,2.89,2.88,2.89,2.89-1.29,2.89-2.89"/><path class="cls-3" d="M8.08,32.38c-1.96.18-3.5,1.83-3.5,3.83v8c0,.62.5,1.12,1.12,1.12s1.12-.5,1.12-1.12v-6.87c0-.26.07-.61.55-.61.33,0,.39.35.41.57v20.6c0,.89.72,1.61,1.61,1.61s1.61-.72,1.61-1.61v-11.87c0-.13.05-.47.46-.47h0c.41,0,.46.34.46.47v11.87c0,.89.72,1.61,1.61,1.61s1.61-.72,1.61-1.61v-20.6c0-.22.08-.57.4-.57.47,0,.55.35.55.61v6.87c0,.62.5,1.12,1.12,1.12s1.12-.5,1.12-1.12v-8c0-2.01-1.54-3.66-3.5-3.83-.07,0-.13-.02-.21-.02h-6.31c-.08,0-.15,0-.22.02"/><line class="cls-1" x1="5.56" y1="45.38" x2="3" y2="58.97"/><path class="cls-3" d="M19.69,44.01c-.15-.23-.41-.39-.7-.39-.46,0-.83.37-.83.83,0,.13.08.36.08.36l2.29,4.15s.14.29.14.55v8.91h0c0,.62.5,1.12,1.12,1.12s1.12-.5,1.12-1.12v-3.52s-.06-.5.34-.5.34.5.34.5v3.52c0,.62.5,1.12,1.12,1.12s1.12-.5,1.12-1.12v-8.91c0-.26.14-.55.14-.55l2.12-3.83s.26-.55.26-.68c0-.46-.37-.83-.83-.83-.3,0-.56.16-.7.39h0c-.07.05-1.13,1.94-1.48,2.29-.37.37-.7.33-.7.33h-2.76s-.33.04-.7-.33c-.36-.35-1.41-2.24-1.48-2.3h0Z"/><path class="cls-3" d="M23.26,45.2c1.26,0,2.27-1.02,2.27-2.28s-1.01-2.27-2.27-2.27-2.27,1.02-2.27,2.27,1.02,2.28,2.27,2.28"/><polygon class="cls-3" points="23.26 48.39 25.83 50.27 27.05 54.77 23.26 54.77 19.46 54.77 20.69 50.27 23.26 48.39"/><rect class="cls-2" width="85.04" height="85.04"/></svg>