<?xml version="1.0" encoding="UTF-8"?><svg id="katman_1" xmlns="http://www.w3.org/2000/svg" viewBox="0 0 85.04 85.04"><defs><style>.cls-1{fill:none;stroke:#dd0979;stroke-miterlimit:10;}.cls-2{fill:#dd0979;}</style></defs><path class="cls-2" d="M52.08,45.53h-19.12c-.11,0-.21.1-.21.23v5.74c0,.13.09.23.21.23h19.12c.12,0,.21-.1.21-.23v-5.74c0-.13-.09-.23-.21-.23"/><path class="cls-2" d="M52.08,33.3h-19.12c-.11,0-.21.1-.21.23v5.74c0,.13.09.23.21.23h19.12c.12,0,.21-.1.21-.23v-5.74c0-.13-.09-.23-.21-.23"/><path class="cls-2" d="M51.81,24.62l-9.18-9.17c-.06-.06-.16-.06-.23,0l-9.17,9.17c-.1.1-.03.27.11.27h18.35c.14,0,.21-.17.11-.27"/><path class="cls-2" d="M60.42,51.81l9.17-9.17c.06-.06.06-.16,0-.22l-9.17-9.18c-.1-.1-.27-.03-.27.11v18.35c0,.14.17.21.27.11"/><path class="cls-2" d="M33.23,60.42l9.17,9.18c.06.06.16.06.22,0l9.18-9.18c.1-.1.03-.27-.11-.27h-18.35c-.14,0-.21.17-.11.27"/><path class="cls-2" d="M24.62,33.23l-9.18,9.18c-.06.06-.06.16,0,.22l9.18,9.17c.1.1.27.03.27-.11v-18.35c0-.14-.17-.21-.27-.11"/><rect class="cls-1" width="85.04" height="85.04"/></svg>