<?xml version="1.0" encoding="UTF-8"?><svg id="katman_1" xmlns="http://www.w3.org/2000/svg" viewBox="0 0 85.04 85.04"><defs><style>.cls-1{fill:none;stroke:#4a7634;stroke-miterlimit:10;}.cls-2{fill:#4a7634;}</style></defs><path class="cls-2" d="M58.3,45.91c-.43-.12-2.24-2.62-.8-4.26.24-.27-.48-1.07-.28-1.08.78-.06,1.2.43,1.4,1.12.02.31.03.62.03.93,0,1.13-.12,2.22-.34,3.28M53.88,54.03c-.16-.05-.33-.1-.51-.19-.88-.45-.77.27-1.2.11-.43-.16.49-1.16-.81-.32-1.29.84-.94-.13-1.51-1.56-.57-1.43.65-3.07,1.67-3.44,1.4-.5,2.27-.61,2.92-.77,1.93-.48,2.34-1.63,2.69-.93.07.13.13.26.19.37.11.21.24.63.25,1.05-.82,2.15-2.09,4.08-3.7,5.67M42.53,58.7c-1.57,0-3.09-.23-4.52-.65-.21-.17-.32-.45-.19-.79.5-1.3,1.98-1.8,3.15-1.92,2.61-.25,6.04,1.7,6.58,1.39.55-.31,1.65-1.75,3.27-1.68,1.11.04,1.1.23,1.47.37-2.71,2.06-6.09,3.29-9.76,3.28M40.35,48.21c-.22.36-.83,3.07-1.24,2.75-.41-.32.17-3.14.29-3.35.64-1.16,2.01-1.1.95.6M46.93,45.02c-.32.28-1.13.18-1.54-.14-.4-.32.26-.84.5-.86.54-.05,1.35.71,1.04,1M54.03,45.06c-.17-.07-.33-.23-.46-.62-.13-.4.2-.62.53-.46.33.17.76.66.76.93,0,.26-.65.23-.83.16M54.72,45.56c.54-.04,1.35.71,1.03,1-.32.28-1.13.18-1.53-.14-.4-.32.26-.84.5-.86M37.44,51.95c-.31,1.23-.68,1.67-.99,2.06-.31.39-1.46.89-2.19.84-.73-.06-.83-2.01-.83-3.01,0-.35-.49.68-.74-1.41-.16-1.34-1.02.14-1.08-.76-.06-.89-.49-.71-.94-1.27-.45-.56-1.01.05-1.64.33-.62.28-.37.42-1.25.14-.02,0-.03-.01-.06-.02-.81-1.93-1.26-4.04-1.26-6.27,0-.54.03-1.08.08-1.6.03-.05.06-.11.1-.15.85-1.01.83-1.24.83-1.24l.94-.32s1.5.23,2.64.66c.93.35,2.4,1.14,3.25.8.62-.25,1.1-.59,1.04-1.1-.07-.65-.58-.8-1.19-.37-.23.16-.71-.97-1.09-.92-.38.06.47,1.33.15,1.39-.32.05-.97-1.33-1.08-1.55-.11-.22-.61-.78-1.06-.36-.95.9-2.49.84-2.8,1.07-.94.7-1.19-.23-1.17-.81.04-.13.08-.26.12-.39.31-.34,1.41-.45,1.79-.2.42.28.71-.07.88-.24.17-.17.11-.43,0-.65-.11-.22.21-.39.42-.44.22-.06.93-.56,1.22-.73.29-.17,1.78-.34,2.44-.01.67.34,1.28.06,1.61-.32.41-.49.94-.86,1.17-.97.23-.11-.57-.86-1.24-.04-.67.82-1.01.89-1.32.89s-2.17-.47-2.4-1.05c-.23-.59.58-1.03,1.27-1.36.69-.33,2.56-.32,3.04-.43.97-.21,2.22-.7,2.85-.27.62.42-2.62,1.16-1.56,1.73.38.21,2.1-.98,2.69-1.29,1.39-.71-1.34-.95-.99-2.4.4-1.64-3.34-1.01-5.21-.87,2.51-1.6,5.48-2.53,8.67-2.53,7.59.01,13.94,5.28,15.63,12.35.01.35-.04.6-.08.74-.15.58-1.25,1.08-1.89.14-.16-.24-.85-.89-.83.23.02,1.12,1.08,1.23.05,1.9-1.03.67-1.22.51-1.69.68-.48.17-.94,1.32-.82,1.93.11.61,1.58,2.29.49,2.22-.26-.02-2.18-1.34-2.49-2.18-.33-.89-.7-1.76-.96-2.43-.26-.67-.94-.84-1.51-.45-.57.39.16.78-.25,1.62-.41.84-.71,1.58-1.31.89-1.57-1.8-3.85-.92-4.21-2.92-.19-1.09-1.13-.98-1.91-1.6-.78-.61-1.22-.95-1.35-.5-.12.39,2.46,2.43,2.64,2.96.27.78-.77,1.46-1.54,1.64-.76.18-1.1-.43-1.85-1.21-.75-.78-1.08-1.34-1.13-.73-.08.89.71,2.19,1.47,2.67.65.41,1.38.6,1.17,1.27-.21.67,0,.29-.74,1.01-.73.72-.87.96-.82,1.96.05,1-.21,1.06-.37,1.9-.16.83-.52.11-.84,1.34M28.82,34.2s.07-.08.08-.1c.29-.33.87-.4,1.27-.46.4-.07.93.13,1,.4.07.26-1,.75-1.2.93-.56.51-1.43,1.55-1.94,1.66-.17.04-.3.01-.42-.04.34-.83.74-1.63,1.2-2.39M29.65,32.56c.21-.3.9-1.18.99-1.29.18-.23.53-.27.78-.32.25-.05.57.09.61.28.04.18-.1.9-.22,1.02-.34.35-1.22.85-1.71.77-.38-.06-.52-.35-.45-.46M80.8,42.14c-2.74-3.86-15.15-19.26-38.25-19.29-23.1-.03-35.54,15.34-38.3,19.19-.12.16-.22.31-.3.43.08.12.18.27.3.43,2.75,3.86,15.15,19.26,38.25,19.29,23.1.03,35.55-15.34,38.3-19.18.12-.17.22-.31.3-.43-.08-.12-.18-.26-.3-.43"/><rect class="cls-1" width="85.04" height="85.04"/></svg>