<?xml version="1.0" encoding="UTF-8"?><svg id="katman_1" xmlns="http://www.w3.org/2000/svg" viewBox="0 0 85.04 85.04"><defs><style>.cls-1{fill:none;stroke:#d28d0e;stroke-miterlimit:10;}.cls-2{fill:#d28d0e;}</style></defs><path class="cls-2" d="M69.47,29.45c-4.61-3.64-10.71-3.71-12.94-3.18l-.26.06c-2.58.61-6.68,1.62-11.48,7.57-.03.03-.05.07-.08.1l-.06.07c-.05.07-.08.14-.08.23,0,.07.02.14.05.2l.11.18c.6,1.01,1.36,2.3,2,3.5,0,.01.01.02.02.04.07.13.2.23.37.23.11,0,.21-.04.28-.11.03-.04.06-.08.09-.12,4.26-5.89,7.61-6.7,9.87-7.23l.27-.06c1.18-.28,5.65-.27,8.87,2.28,2.52,1.99,3.8,5.15,3.8,9.4,0,7.13-3.47,9.92-6.38,11-4.51,1.68-8.83-.57-8.86-.58l-.19-.09c-2.48-1.08-6.17-3.31-9.66-10.31-7.02-14.1-12.89-15.43-16.78-16.31l-.21-.05c-1.77-.4-7.91-.68-12.74,3.17-2.52,2.01-5.53,5.93-5.53,13.14,0,4.39.9,7.29,3.22,10.35.51.7,5.71,7.37,15.76,5.45,1.61-.31,3.79-1.08,6.18-2.87l2.21,2c.14.13.38.12.51-.03.06-.07.09-.15.09-.24v-.03l1.6-9.82v-.11c0-.1-.04-.19-.12-.26-.07-.06-.15-.09-.23-.09h-.07s-.1.02-.1.02l-9.4,2.63-.17.03c-.07.01-.13.05-.18.1-.14.15-.12.38.03.51l.11.1,2.11,1.9c-1.36.88-2.55,1.29-3.45,1.46-7.27,1.39-10.86-3.38-11-3.56l-.05-.07c-1.69-2.22-2.26-4.1-2.26-7.47,0-4.26,1.26-7.43,3.73-9.41,3.14-2.51,7.48-2.52,8.71-2.25l.21.05c3.18.72,7.55,1.71,13.55,13.78,3.12,6.27,7.03,10.36,11.95,12.52.63.32,3.61,1.74,7.49,1.74,1.62,0,3.4-.25,5.22-.93,2.85-1.06,9.48-4.7,9.48-15.48,0-7.21-3.05-11.13-5.61-13.15"/><rect class="cls-1" width="85.04" height="85.04"/></svg>