<?xml version="1.0" encoding="UTF-8"?><svg id="katman_1" xmlns="http://www.w3.org/2000/svg" viewBox="0 0 85.04 85.04"><defs><style>.cls-1{fill:#004c84;}.cls-2{fill:none;stroke:#004c84;stroke-miterlimit:10;}</style></defs><path class="cls-1" d="M60.53,19.49s-1.01,1.34-.72,2.65c.3,1.31,1.79,2.09,1.79,2.09,0,0,1.01-1.35.72-2.65-.29-1.31-1.79-2.09-1.79-2.09"/><path class="cls-1" d="M58.88,27.17s1.01-1.34.72-2.65c-.3-1.31-1.79-2.09-1.79-2.09,0,0-1.01,1.34-.72,2.65.3,1.31,1.79,2.09,1.79,2.09"/><path class="cls-1" d="M63.04,25.73s1.07,1.08,2.29.97c1.22-.11,2.12-1.36,2.12-1.36,0,0-1.07-1.08-2.29-.97-1.22.11-2.12,1.36-2.12,1.36"/><path class="cls-1" d="M64.79,19.97c-.99,1.01-.85,2.78-.85,2.78,0,0,1.75.15,2.74-.85.99-1,.85-2.78.85-2.78,0,0-1.75-.15-2.74.85"/><path class="cls-1" d="M62.6,29.72c1.21.14,2.35-.9,2.35-.9,0,0-.83-1.27-2.04-1.42-1.21-.14-2.35.9-2.35.9,0,0,.83,1.27,2.04,1.42"/><path class="cls-1" d="M63.69,49.23h-9.07c-.71,0-1.28.57-1.28,1.28s.58,1.28,1.28,1.28h9.07c.71,0,1.28-.57,1.28-1.28s-.57-1.28-1.28-1.28"/><path class="cls-1" d="M63.69,63.36h-9.07c-.71,0-1.28.57-1.28,1.28s.58,1.28,1.28,1.28h9.07c.71,0,1.28-.57,1.28-1.28s-.57-1.28-1.28-1.28"/><path class="cls-1" d="M22.91,46.11c-.21-.07-.42-.12-.63-.16,0,0,.23.07.63.16"/><path class="cls-1" d="M37.6,51.66c.6,0,1.2,0,1.8-.05v4.74l-1.8-.04v-4.65ZM63.35,52.69h-8.4c-.4,0-.73.33-.73.73v2.54l-5.48.6-8.01-.18v-4.89c1.07-.14,2.13-.35,3.19-.65,7.71-2.18,9.39-6.98,9.23-11.39-.17-4.49,1.27-6.24,3.34-7.01.59-.22,1.18-.36,1.71-.45.02,1.1.25,2.39.74,3.92.18,0,.37-.02.55-.04-.52-1.56-.74-2.85-.76-3.95,1.07-.13,1.83-.05,1.83-.05,0,0-.72-.39-1.74-1.24.35-2.13,1.61-3.44,2.92-4.77.72-.74,1.46-1.49,2.04-2.4l-.45-.29c-.55.86-1.28,1.6-1.98,2.32-1.27,1.3-2.56,2.63-3,4.75-.41-.37-.86-.82-1.32-1.33-1.9-2.13-4.35-.57-7.84,2.68-3.49,3.25-7.89,3.36-12.18-1.03-5.66-5.79-10.6-5.76-13.98-5.43,2.32.99,3.13,3.15,4.3,8.65,1.23,5.77,4.33,8.38,8.57,8.74-1.96.32-2.47.59-5.63,2.77-2.47,1.7-5.94,1.16-7.34.84,2.58.81,5.64,3.51,8.38,4.46,1.59.55,3.27.89,5,1.02v4.68l-15.2-.33v3.27l27.65-.61,5.48.6v2.54c0,.4.33.73.73.73h8.4c.4,0,.73-.33.73-.73v-8.34c0-.4-.33-.73-.73-.73"/><path class="cls-1" d="M20.3,58.68c0,.69-.48,1.25-1.07,1.25h-.65c-.59,0-1.07-.56-1.07-1.25v-2.26c0-.69.48-1.25,1.07-1.25h.65c.59,0,1.07.56,1.07,1.25v2.26Z"/><rect class="cls-2" width="85.04" height="85.04"/></svg>