<?xml version="1.0" encoding="UTF-8"?><svg id="katman_1" xmlns="http://www.w3.org/2000/svg" viewBox="0 0 85.04 85.04"><defs><style>.cls-1{fill:#f59d08;}.cls-2{fill:none;stroke:#f59d08;stroke-miterlimit:10;}</style></defs><path class="cls-1" d="M7.58,54.32h15.68c.21,0,.39-.17.39-.39,0-.1-.04-.19-.1-.26l-.02-.02-7.8-10.1-.08-.08c-.07-.08-.17-.12-.28-.12-.1,0-.18.04-.25.1l-.05.05-.07.08-7.61,9.99-.12.14c-.04.06-.07.14-.07.21,0,.21.17.39.39.39"/><path class="cls-1" d="M23.22,55.75H7.51c-.21,0-.39.17-.39.39v12.3c0,.21.17.39.39.39h5.06v-7.74c0-.21.17-.38.39-.38h4.7c.21,0,.39.17.39.38v7.74h5.19c.21,0,.38-.17.38-.39v-12.3c0-.21-.17-.39-.38-.39"/><path class="cls-1" d="M76.13,57.56c0,.2-.17.37-.38.37h-4.65c-.21,0-.38-.17-.38-.37v-2.83c0-.2.17-.37.38-.37h4.65c.21,0,.38.17.38.37v2.83ZM76.13,62.78c0,.21-.17.37-.38.37h-4.65c-.21,0-.38-.16-.38-.37v-2.82c0-.21.17-.37.38-.37h4.65c.21,0,.38.17.38.37v2.82ZM69.03,57.56c0,.2-.17.37-.38.37h-4.65c-.21,0-.38-.17-.38-.37v-2.83c0-.2.17-.37.38-.37h4.65c.21,0,.38.17.38.37v2.83ZM69.03,62.78c0,.21-.17.37-.38.37h-4.65c-.21,0-.38-.16-.38-.37v-2.82c0-.21.17-.37.38-.37h4.65c.21,0,.38.17.38.37v2.82ZM77.54,52.53h-15.56c-.21,0-.38.16-.38.37v15.71c0,.2.17.37.38.37h15.56c.21,0,.38-.17.38-.37v-15.71c0-.21-.17-.37-.38-.37"/><path class="cls-1" d="M39.16,27.23c0,.11-.09.2-.2.2h-3.48c-.11,0-.2-.09-.2-.2v-3.89c0-.11.09-.2.2-.2h3.48c.11,0,.2.09.2.2v3.89ZM39.16,36.15c0,.11-.09.2-.2.2h-3.48c-.11,0-.2-.09-.2-.2v-3.89c0-.11.09-.2.2-.2h3.48c.11,0,.2.09.2.2v3.89ZM39.16,45.07c0,.11-.09.2-.2.2h-3.48c-.11,0-.2-.09-.2-.2v-3.89c0-.11.09-.2.2-.2h3.48c.11,0,.2.09.2.2v3.89ZM39.16,53.99c0,.11-.09.2-.2.2h-3.48c-.11,0-.2-.09-.2-.2v-3.88c0-.11.09-.2.2-.2h3.48c.11,0,.2.09.2.2v3.88ZM39.16,62.91c0,.11-.09.2-.2.2h-3.48c-.11,0-.2-.09-.2-.2v-3.88c0-.11.09-.2.2-.2h3.48c.11,0,.2.09.2.2v3.88ZM32.32,27.23c0,.11-.09.2-.2.2h-3.49c-.11,0-.2-.09-.2-.2v-3.89c0-.11.09-.2.2-.2h3.49c.11,0,.2.09.2.2v3.89ZM32.32,36.15c0,.11-.09.2-.2.2h-3.49c-.11,0-.2-.09-.2-.2v-3.89c0-.11.09-.2.2-.2h3.49c.11,0,.2.09.2.2v3.89ZM32.32,45.07c0,.11-.09.2-.2.2h-3.49c-.11,0-.2-.09-.2-.2v-3.89c0-.11.09-.2.2-.2h3.49c.11,0,.2.09.2.2v3.89ZM32.32,53.99c0,.11-.09.2-.2.2h-3.49c-.11,0-.2-.09-.2-.2v-3.88c0-.11.09-.2.2-.2h3.49c.11,0,.2.09.2.2v3.88ZM32.32,62.91c0,.11-.09.2-.2.2h-3.49c-.11,0-.2-.09-.2-.2v-3.88c0-.11.09-.2.2-.2h3.49c.11,0,.2.09.2.2v3.88ZM41.38,16.07h-15.22c-.2,0-.37.17-.37.37v52.02c0,.2.17.37.37.37h15.22c.2,0,.37-.17.37-.37V16.44c0-.21-.17-.37-.37-.37"/><path class="cls-1" d="M61.93,47.5h15.65c.17,0,.31.14.31.31v3.13c0,.17-.14.31-.31.31h-15.66c-.17,0-.31-.14-.31-.31v-3.13c0-.17.14-.31.31-.31Z"/><path class="cls-1" d="M58.03,41.79c0,.21-.17.37-.37.37h-4.53c-.21,0-.38-.17-.38-.37v-2.84c0-.21.17-.37.38-.37h4.53c.2,0,.37.17.37.37v2.84ZM58.03,47.03c0,.21-.17.37-.37.37h-4.53c-.21,0-.38-.17-.38-.37v-2.84c0-.21.17-.37.38-.37h4.53c.2,0,.37.17.37.37v2.84ZM58.03,52.28c0,.2-.17.37-.37.37h-4.53c-.21,0-.38-.17-.38-.37v-2.84c0-.21.17-.37.38-.37h4.53c.2,0,.37.17.37.37v2.84ZM58.03,57.53c0,.21-.17.37-.37.37h-4.53c-.21,0-.38-.17-.38-.37v-2.84c0-.21.17-.37.38-.37h4.53c.2,0,.37.16.37.37v2.84ZM58.03,62.78c0,.21-.17.37-.37.37h-4.53c-.21,0-.38-.17-.38-.37v-2.84c0-.2.17-.37.38-.37h4.53c.2,0,.37.17.37.37v2.84ZM51.11,40.78v6.26c0,.21-.17.37-.37.37h-4.54c-.21,0-.38-.17-.38-.37v-.79s.01-.1.03-.14c0-.02,0-.02.02-.04,0-.02.02-.03.03-.05.01-.02.03-.04.04-.06.58-.83,3.2-4.05,4.3-5.4l.11-.13c.08-.1.2-.16.33-.16.21,0,.37.15.42.35v.17ZM51.1,52.28c0,.2-.17.37-.37.37h-4.54c-.21,0-.37-.17-.37-.37v-2.84c0-.21.17-.37.37-.37h4.54c.21,0,.37.17.37.37v2.84ZM51.1,57.53c0,.21-.17.37-.37.37h-4.54c-.21,0-.37-.17-.37-.37v-2.84c0-.21.17-.37.37-.37h4.54c.21,0,.37.16.37.37v2.84ZM51.1,62.78c0,.21-.17.37-.37.37h-4.54c-.21,0-.37-.17-.37-.37v-2.84c0-.2.17-.37.37-.37h4.54c.21,0,.37.17.37.37v2.84ZM53.47,36.2l.11-.13c1.02-1.31,2.75-3.44,3.59-4.47l.11-.13c.08-.1.2-.16.33-.16.21,0,.37.15.42.35v4.8c0,.23-.18.42-.41.43,0,0-.01,0-.02,0s-.01,0-.02,0h-3.74s-.01,0-.02,0c0,0-.01,0-.02,0-.23-.01-.41-.2-.41-.43,0-.1.03-.18.08-.26M59.77,25.89c-.05-.17-.2-.29-.38-.29-.08,0-.15.03-.22.07,0,0-.02.01-.03.02l-.13.16-14.96,18.98-.07.09c-.08.08-.13.18-.13.3v23.32c0,.2.17.37.37.37h15.21c.21,0,.37-.17.37-.37V26.05c0-.06-.01-.11-.04-.16"/><rect class="cls-2" width="85.04" height="85.04"/></svg>