<?xml version="1.0" encoding="UTF-8"?><svg id="katman_1" xmlns="http://www.w3.org/2000/svg" viewBox="0 0 85.04 85.04"><defs><style>.cls-1{fill:none;stroke:#1f3262;stroke-miterlimit:10;}.cls-2{fill:#1f3262;}</style></defs><path class="cls-2" d="M51.75,40.71c2.67-2.48,4.35-6.02,4.35-9.95,0-.59-.04-1.17-.11-1.74,5.44.58,9.68,5.2,9.68,10.78,0,3.18-1.38,6.03-3.56,8.01-2.04-3.83-5.87-6.57-10.36-7.11M60.97,54.19c0,5.98-4.87,10.85-10.85,10.85-1.95,0-3.77-.52-5.35-1.42,2.31-2.43,3.73-5.72,3.73-9.33,0-.89-.09-1.76-.25-2.6,1.95,1.08,4.19,1.7,6.58,1.7,2.12,0,4.13-.49,5.92-1.36.14.7.22,1.43.22,2.17M24.07,54.28c0-.77.08-1.52.24-2.25,1.79.87,3.79,1.35,5.91,1.35,2.38,0,4.61-.62,6.56-1.69-.15.81-.23,1.64-.23,2.5,0,3.67,1.47,7,3.84,9.45-1.6.94-3.47,1.49-5.46,1.49-5.98,0-10.85-4.87-10.85-10.85M19.37,39.81c0-5.59,4.25-10.2,9.68-10.78-.07.57-.11,1.15-.11,1.74,0,3.97,1.71,7.55,4.44,10.03-4.51.51-8.35,3.24-10.41,7.06-2.2-1.99-3.59-4.85-3.59-8.04M42.52,19.91c4.45,0,8.27,2.69,9.94,6.52-4.41.78-8.1,3.69-9.94,7.63-1.84-3.94-5.53-6.85-9.94-7.63,1.67-3.84,5.5-6.52,9.94-6.52M45.1,44.59c1.5-.79,3.21-1.24,5.02-1.24,4.26,0,7.95,2.48,9.72,6.07-1.5.79-3.21,1.24-5.02,1.24-4.26,0-7.95-2.48-9.72-6.07M39.9,44.66c-1.78,3.55-5.45,5.99-9.69,5.99-1.8,0-3.49-.45-4.98-1.22,1.79-3.55,5.45-5.99,9.69-5.99,1.8,0,3.49.45,4.98,1.22M31.81,29.09c5.22.78,9.25,5.28,9.25,10.72,0,.57-.06,1.12-.14,1.67-5.22-.78-9.25-5.28-9.25-10.71,0-.57.06-1.12.14-1.67M42.57,61.96c-2.03-1.97-3.3-4.72-3.3-7.77s1.23-5.72,3.2-7.68c2.03,1.97,3.3,4.73,3.3,7.77s-1.22,5.71-3.2,7.68M53.37,30.76c0,5.44-4.02,9.94-9.25,10.71-.09-.54-.14-1.1-.14-1.67,0-5.44,4.02-9.94,9.25-10.71.08.54.14,1.1.14,1.67M68.41,39.81c0-7.32-5.83-13.31-13.08-13.57-1.87-5.27-6.9-9.06-12.8-9.06s-10.94,3.79-12.8,9.06c-7.26.26-13.08,6.25-13.08,13.57,0,4.35,2.05,8.22,5.24,10.71-.35,1.2-.54,2.46-.54,3.77,0,7.49,6.09,13.58,13.58,13.58,2.84,0,5.48-.88,7.67-2.38,2.16,1.44,4.75,2.29,7.53,2.29,7.49,0,13.58-6.09,13.58-13.58,0-1.28-.18-2.52-.52-3.7,3.17-2.49,5.22-6.35,5.22-10.69"/><rect class="cls-1" width="85.04" height="85.04"/></svg>