<?xml version="1.0" encoding="UTF-8"?><svg id="katman_1" xmlns="http://www.w3.org/2000/svg" viewBox="0 0 85.04 85.04"><defs><style>.cls-1{fill:#0076b8;}.cls-2{fill:none;stroke:#0076b8;stroke-miterlimit:10;}</style></defs><path class="cls-1" d="M55.56,54.94c-1.92,0-3.47-1.55-3.47-3.47s1.55-3.47,3.47-3.47,3.47,1.55,3.47,3.47-1.55,3.47-3.47,3.47M70.63,53.32c-1.31-1.77-9.79-12.58-21.67-12.58-10.32,0-21.36,9.36-21.36,9.36,0,0-4.15-8.49-12.63-9.3-.05,0-.1-.01-.16-.01h-.05c-.18,0-.34.18-.32.34.02.15.13.31.13.31,1.09,1.81,3.88,6.98,3.88,12.14s-2.81,10.35-3.89,12.16l-.07.11c-.03.05-.05.11-.05.18,0,.18.14.32.31.33h.09s.06,0,.09-.02c8.51-.79,12.67-9.31,12.67-9.31,0,0,11.04,9.36,21.36,9.36,11.88,0,20.36-10.81,21.67-12.58.04-.05.06-.09.09-.12.02-.04.03-.08.03-.13,0-.05-.01-.09-.03-.13-.03-.04-.05-.08-.09-.12"/><path class="cls-1" d="M26.82,31.06s.05-.07.09-.09c.06-.04.12-.06.19-.06.09,0,.17.04.23.1,0,0,0,0,.01.01,6.48,6.18,13.27,1.17,14.69,0l.14-.13s.08-.02.13-.02c.05,0,.1,0,.14.02l.14.13c1.41,1.17,8.21,6.18,14.69,0,0,0,0,0,.01-.01.06-.06.14-.1.23-.1.07,0,.14.03.19.06.04.03.07.06.1.09,1.26,1.24,6.68,5.91,12.42.92.06-.06.1-.14.1-.24v-2.37c0-.19-.15-.34-.34-.34-.02,0-.05,0-.07.01-.05.02-.11.05-.17.09-1.76.88-7.24,2.98-12.2-1.71-.05-.04-.1-.09-.14-.14-.05-.03-.09-.03-.14-.03-.04,0-.07,0-.1.03-.07.02-.13.07-.17.13-1.48,1.13-8.28,5.73-14.33.08l-.09-.09c-.06-.06-.15-.09-.25-.09-.09,0-.18.03-.24.09l-.09.09c-6.05,5.64-12.85,1.04-14.33-.08-.04-.06-.1-.11-.17-.13-.04-.02-.07-.03-.11-.03-.05,0-.1,0-.14.03-.05.05-.1.09-.15.14-4.97,4.69-10.44,2.6-12.2,1.71-.06-.03-.12-.06-.17-.09-.03,0-.04-.01-.07-.01-.19,0-.34.15-.34.34v2.37c0,.1.04.18.1.24,5.74,4.99,11.17.32,12.43-.92"/><path class="cls-1" d="M14.7,20.43s-.04-.01-.07-.01c-.19,0-.34.15-.34.34v2.37c0,.1.04.19.1.24,5.74,4.99,11.17.31,12.43-.92.03-.04.05-.07.09-.1.06-.04.12-.06.19-.06.09,0,.17.03.23.09,0,0,.01.01.02.01,6.48,6.18,13.27,1.18,14.69,0l.14-.13s.08-.02.13-.02.1,0,.13.02l.14.13c1.41,1.18,8.21,6.18,14.69,0,0,0,0,0,.01-.01.06-.06.14-.09.23-.09.07,0,.13.03.19.06.04.02.07.06.1.1,1.26,1.23,6.68,5.9,12.42.92.06-.06.1-.14.1-.24v-2.37c0-.19-.15-.34-.34-.34-.02,0-.05,0-.07.01-.05.03-.11.06-.17.09-1.76.88-7.24,2.99-12.2-1.71-.05-.04-.1-.09-.14-.14-.04-.02-.09-.03-.14-.03-.03,0-.07.01-.1.02-.07.03-.13.08-.17.13-1.48,1.13-8.28,5.73-14.33.08l-.09-.09c-.06-.06-.15-.1-.24-.1-.09,0-.18.05-.24.1l-.09.09c-6.05,5.64-12.85,1.04-14.33-.08-.04-.06-.1-.1-.17-.13-.04,0-.07-.02-.11-.02-.05,0-.1.01-.14.03-.04.05-.1.09-.14.14-4.97,4.7-10.44,2.6-12.2,1.71-.06-.03-.12-.06-.17-.09"/><rect class="cls-2" width="85.04" height="85.04"/></svg>