<?xml version="1.0" encoding="UTF-8"?><svg id="katman_1" xmlns="http://www.w3.org/2000/svg" viewBox="0 0 85.04 85.04"><defs><style>.cls-1{fill:#3ea635;}.cls-2{fill:none;stroke:#c8c7c7;stroke-miterlimit:10;}</style></defs><path class="cls-1" d="M31.02,46.54h3.07c.13,0,.23.1.23.23v7.59c0,.13-.1.23-.23.23h-3.07c-.13,0-.23-.1-.23-.23v-7.59c0-.13.1-.23.23-.23Z"/><path class="cls-1" d="M67.84,57.85H17.2c-.13,0-.23.11-.23.24v3.1c0,.12.11.23.23.23h50.63c.12,0,.23-.1.23-.23v-3.1c0-.13-.11-.24-.23-.24"/><path class="cls-1" d="M67.84,64.01H17.2c-.13,0-.23.1-.23.23v3.1c0,.12.11.23.23.23h50.63c.12,0,.23-.1.23-.23v-3.1c0-.13-.11-.23-.23-.23"/><path class="cls-1" d="M58.2,38.13c-.63-.49-2.32-1.65-4.38-1.65-1.47,0-2.84.58-4.07,1.73-.09.08-.14.2-.14.32v.28c0,.14.04.26.14.35.11.08.23.11.36.08.03,0,.07-.01.09-.02.09-.03.18-.09.25-.16.27-.18.99-.42,2.03-.42s3.18.29,5.22,2.19l.05.04c.11.12.27.18.44.18.16,0,.32-.07.43-.18l.04-.04c2.05-1.9,4.15-2.19,5.22-2.19s1.77.24,2.03.42c.07.07.16.13.28.17.04.01.17.04.3,0,.19-.05.32-.22.32-.42v-.24c0-.12-.05-.23-.14-.31-1.24-1.18-2.62-1.77-4.12-1.77-2.04,0-3.72,1.14-4.37,1.65"/><path class="cls-1" d="M55.06,17.95c-.11.05-.19.15-.22.27l-.05.17c-.04.13-.01.27.07.38.08.1.19.16.31.17.02,0,.05,0,.06,0,.09,0,.17-.02.24-.06.05,0,.14-.03.31-.03.23,0,2.27.07,3.62,2.36l.02.03c.07.13.19.22.32.26.04.01.11.02.16.02.09,0,.19-.02.26-.06l.03-.02c.74-.37,1.5-.56,2.26-.56,1.28,0,2.11.52,2.31.74.04.07.1.14.17.19.04.02.12.06.16.08.02,0,.05,0,.07.01.01,0,.03,0,.05,0,.07,0,.14-.02.2-.05.1-.05.18-.15.22-.26l.04-.15s.02-.08.02-.12c0-.08-.02-.15-.06-.22-.98-1.71-2.41-2.06-3.43-2.06-.76,0-1.43.2-1.82.34-.46-.62-1.64-1.91-3.42-1.91-.62,0-1.26.16-1.9.48"/><path class="cls-1" d="M44.36,25.74v.23c.02.14.1.26.22.34.1.06.23.09.34.05.02,0,.05-.01.08-.02.09-.03.16-.09.22-.16.22-.16.91-.44,1.93-.44s2.48.26,4,1.51l.04.04c.11.09.25.15.39.15h.04c.16-.01.31-.09.4-.19l.03-.04c1.69-1.79,3.51-2.05,4.44-2.05.67,0,1.14.14,1.32.24.07.06.15.11.26.14.03,0,.1.02.18.01.03,0,.07-.01.11-.02.18-.06.3-.24.29-.43v-.2c-.02-.12-.07-.22-.16-.3-1.01-.85-2.09-1.27-3.24-1.27-1.78,0-3.2,1.05-3.79,1.57-.54-.37-1.85-1.12-3.38-1.12-1.35,0-2.55.56-3.59,1.66-.08.09-.12.21-.12.32"/><path class="cls-1" d="M18.74,29.81c0-3.03,2.46-5.49,5.49-5.49.12,0,.24.01.35.02.29-3.84,3.49-6.86,7.4-6.86,4.1,0,7.43,3.33,7.43,7.43,0,1.16-.28,2.26-.75,3.24,3.72.82,6.5,4.13,6.5,8.1,0,4.58-3.72,8.3-8.3,8.3-.34,0-11.08-.07-11.08-.07-3.25,0-5.88-2.63-5.88-5.88,0-1.56.61-2.97,1.6-4.02-1.65-.95-2.76-2.72-2.76-4.76"/><rect class="cls-2" width="85.04" height="85.04"/></svg>