<?xml version="1.0" encoding="UTF-8"?><svg id="katman_1" xmlns="http://www.w3.org/2000/svg" viewBox="0 0 85.04 85.04"><defs><style>.cls-1{fill:none;stroke:#d6a102;stroke-miterlimit:10;}.cls-2{fill:#d6a102;}</style></defs><path class="cls-2" d="M33.46,64.28v1.47s0,.02,0,.03c0,.01,0,.02,0,.04.01.36.31.65.68.66,0,0,0,0,.01,0s.01,0,.02,0h17.2s0,0,.01,0,.01,0,.01,0c.38,0,.68-.31.68-.69,0,0,0,0,0,0,0,0,0,0,0,0v-1.66c9.68-3.17,16.94-11.02,18.53-20.59,0-.02,0-.04,0-.06,0-.03.01-.06.01-.1,0-.39-.31-.7-.7-.7H15.11c-.39,0-.7.31-.7.7l.04.31c1.68,9.65,9.13,17.55,19.01,20.59"/><path class="cls-2" d="M52.06,19.28c-.23.32-5.52,7.95.12,14.11,2.59,2.83,2.36,5.33,1.62,7.01h3.62c.73-2.49.43-5.61-2.51-8.82-4.16-4.54.05-10.68.12-10.78.5-.7.23-1.6-.59-2.02-.82-.42-1.88-.2-2.38.5"/><path class="cls-2" d="M42.9,40.41h3.62c.73-2.49.43-5.61-2.51-8.82-4.16-4.54.05-10.68.12-10.78.49-.7.23-1.6-.59-2.02-.82-.42-1.88-.2-2.38.5-.23.32-5.53,7.95.12,14.11,2.59,2.83,2.36,5.33,1.62,7.01"/><path class="cls-2" d="M30.25,19.28c-.23.32-5.53,7.95.12,14.11,2.59,2.83,2.36,5.33,1.63,7.01h3.62c.73-2.49.43-5.61-2.51-8.82-4.16-4.54.05-10.68.12-10.78.49-.7.23-1.6-.59-2.02-.82-.42-1.88-.2-2.38.5"/><rect class="cls-1" width="85.04" height="85.04"/></svg>