<?xml version="1.0" encoding="UTF-8"?><svg id="katman_1" xmlns="http://www.w3.org/2000/svg" viewBox="0 0 85.04 85.04"><defs><style>.cls-1{fill:none;stroke:#289438;stroke-miterlimit:10;}.cls-2{fill:#289438;}</style></defs><path class="cls-2" d="M77.48,43.94c0-2.93-1.88-5.31-4.73-5.31-1.43,0-3.15,1.56-4.08,2.52-.93-.96-2.54-2.52-3.97-2.52-2.85,0-4.85,2.38-4.85,5.31,0,1.47.58,2.79,1.51,3.76l7.31,7.32,7.3-7.31h0c.94-.97,1.51-2.3,1.51-3.76"/><path class="cls-2" d="M46.36,66.97s-.05,0-.08,0c-.55-.03-1.01-.45-1.11-.99l-3.71-21.62-5.62,10.43c-.25.46-.76.7-1.27.61-.51-.09-.9-.5-.98-1.01l-2.39-16.69-4.37,9.81c-.19.43-.62.71-1.1.71H8.76c-.66,0-1.2-.54-1.2-1.2s.54-1.2,1.2-1.2h16.2l5.75-12.91c.22-.49.73-.77,1.26-.7.53.07.95.49,1.02,1.02l2.46,17.21,5.55-10.28c.24-.45.74-.7,1.25-.62.51.08.9.48.99.98l3.44,20.03,12.53-41.62c.14-.47.56-.81,1.06-.85.49-.04.96.23,1.18.67l6.59,13.67c.29.6.04,1.31-.56,1.6-.6.29-1.32.04-1.6-.56l-5.25-10.89-13.11,43.55c-.15.51-.62.85-1.15.85"/><rect class="cls-1" width="85.04" height="85.04"/></svg>