<?xml version="1.0" encoding="UTF-8"?><svg id="katman_1" xmlns="http://www.w3.org/2000/svg" viewBox="0 0 85.04 85.04"><defs><style>.cls-1{fill:none;stroke:#c11728;stroke-miterlimit:10;}.cls-2{fill:#c11728;}</style></defs><polygon class="cls-2" points="36.09 32.63 17.39 21.83 17.39 56.76 36.09 62.4 36.09 32.63"/><polygon class="cls-2" points="38.14 32.7 38.14 62.42 56.96 56.76 56.96 21.83 38.14 32.7"/><polygon class="cls-2" points="67.77 56.14 67.22 56.14 69.43 63.88 71.64 56.14 71.1 56.14 71.64 56.14 71.64 25.06 71.1 25.06 70.55 25.06 69.96 25.06 68.86 25.06 68.32 25.06 67.77 25.06 67.22 25.06 67.22 56.14 67.77 56.14"/><polygon class="cls-2" points="60.98 23.33 58.98 21.75 58.98 57.71 38.2 64.42 37.24 64.42 37.05 64.42 36.09 64.42 15.4 58.64 15.4 21.75 13.39 23.33 13.39 60.05 35.99 66.31 37.05 66.31 37.24 66.31 38.29 66.31 59.14 59.69 60.98 59.15 60.98 23.33"/><path class="cls-2" d="M71.65,20.95c0-1.22-.99-2.21-2.21-2.21s-2.21.99-2.21,2.21v2.39h4.42v-2.39Z"/><rect class="cls-1" width="85.04" height="85.04"/></svg>