<?xml version="1.0" encoding="UTF-8"?><svg id="katman_1" xmlns="http://www.w3.org/2000/svg" viewBox="0 0 85.04 85.04"><defs><style>.cls-1{fill:none;stroke:#e6331d;stroke-miterlimit:10;}.cls-2{fill:#e6331d;}</style></defs><path class="cls-2" d="M38.93,50.98c-6.89,0-12.49-5.61-12.49-12.49s5.6-12.49,12.49-12.49,12.49,5.6,12.49,12.49-5.6,12.49-12.49,12.49M62.92,14.77h-12.96c-.09,0-.16.07-.16.17v4.31c0,.09.08.17.16.17h5.16l-5.73,5.73c-2.89-2.27-6.52-3.62-10.46-3.62-9.36,0-16.97,7.61-16.97,16.97,0,8.62,6.46,15.75,14.78,16.83v4.96h-5.11c-.09,0-.17.07-.17.16v4.62c0,.09.07.17.17.17h5.11v4.88c0,.09.07.17.16.17h4.61c.09,0,.17-.07.17-.17v-4.88h5.11c.09,0,.16-.07.16-.17v-4.62c0-.09-.07-.16-.16-.16h-5.11v-5.04c8.05-1.32,14.22-8.33,14.22-16.75,0-3.63-1.15-7-3.1-9.76l5.65-5.65v4.82c0,.09.08.17.17.17h4.31c.09,0,.17-.07.17-.17v-12.96c0-.09-.08-.17-.17-.17"/><path class="cls-2" d="M46.56,33.36h-15.15c-.09,0-.17.07-.17.15v3.67c0,.09.07.15.17.15h15.15c.09,0,.17-.07.17-.15v-3.67c0-.08-.07-.15-.17-.15"/><path class="cls-2" d="M46.56,39.91h-15.15c-.09,0-.17.07-.17.15v3.67c0,.08.07.15.17.15h15.15c.09,0,.17-.07.17-.15v-3.67c0-.08-.07-.15-.17-.15"/><rect class="cls-1" width="85.04" height="85.04"/></svg>