<?xml version="1.0" encoding="UTF-8"?><svg id="katman_1" xmlns="http://www.w3.org/2000/svg" viewBox="0 0 85.04 85.04"><defs><style>.cls-1{fill:none;stroke:#00a7d7;stroke-miterlimit:10;}.cls-2{fill:#00a7d7;}</style></defs><path class="cls-2" d="M59.15,24.15c-1.02-.45-2.32-.29-3.57.22-4.69,1.9-7.89,2.59-12.82,1.04-3.11-.97-6.02-3.01-9.46-1.77-2.28.82-4.41,1.6-6.99,1.58l-1.49-7.64h35.4l-1.07,6.57ZM47.15,46.83s-1.72,1.77-4.51,1.57c-2.8.19-4.52-1.57-4.52-1.57-2.83-2.83-1.82-6.35-.84-8.17.61-1.14,4.96-7.68,5.34-8.24v-.04s0,0,.02.02l.02-.02v.04c.36.56,4.72,7.1,5.33,8.24.99,1.82,2,5.34-.84,8.17M61.77,16.06c-.09-.1-.21-.15-.34-.15H23.6c-.13,0-.25.05-.34.15-.08.11-.12.24-.1.36l6.36,38.44c.03.21.22.37.44.37h7.8l.53,6.26h-3.28s7.64,7.64,7.64,7.64l7.66-7.65h-3.28s.53-6.25.53-6.25h7.94c.22,0,.4-.16.43-.38l5.95-38.43c.02-.13-.02-.26-.1-.36"/><rect class="cls-1" width="85.04" height="85.04"/></svg>