<?xml version="1.0" encoding="UTF-8"?><svg id="katman_1" xmlns="http://www.w3.org/2000/svg" viewBox="0 0 85.04 85.04"><defs><style>.cls-1{fill:none;stroke:#fbb800;stroke-miterlimit:10;}.cls-2{fill:#fbb800;}</style></defs><path class="cls-2" d="M42.52,50.48c-4.39,0-7.95-3.56-7.95-7.95,0-3.57,2.35-6.59,5.59-7.59v2.96c-1.69.86-2.84,2.61-2.84,4.63,0,2.87,2.33,5.2,5.2,5.2s5.2-2.33,5.2-5.2c0-2.03-1.16-3.78-2.85-4.64v-2.96c3.24,1,5.6,4.02,5.6,7.6,0,4.39-3.56,7.95-7.95,7.95M41.38,33.41c0-.51.51-1.07,1.14-1.07s1.13.56,1.13,1.07v5.25c0,.51-.51,1.06-1.13,1.06s-1.14-.55-1.14-1.06v-5.25ZM42.52,27.37c-8.44,0-15.28,6.84-15.28,15.28s6.84,15.28,15.28,15.28,15.28-6.84,15.28-15.28-6.84-15.28-15.28-15.28"/><path class="cls-2" d="M24.97,42.52c0-.69-.61-1.25-1.17-1.25h-6.69c-.56,0-1.18.56-1.18,1.25s.62,1.26,1.18,1.26h6.69c.56,0,1.17-.56,1.17-1.26"/><path class="cls-2" d="M69.12,42.52c0-.69-.61-1.25-1.17-1.25h-6.69c-.56,0-1.18.56-1.18,1.25s.62,1.26,1.18,1.26h6.69c.56,0,1.17-.56,1.17-1.26"/><path class="cls-2" d="M42.52,69.12c.69,0,1.25-.61,1.25-1.17v-6.69c0-.56-.56-1.18-1.25-1.18s-1.26.62-1.26,1.18v6.69c0,.56.57,1.17,1.26,1.17"/><path class="cls-2" d="M65.6,55.73c.34-.6.09-1.39-.4-1.67l-5.81-3.32c-.49-.28-1.31-.1-1.65.5-.34.6-.09,1.4.4,1.68l5.81,3.32c.49.28,1.3.09,1.64-.51"/><path class="cls-2" d="M29.31,65.6c.6.34,1.39.09,1.67-.4l3.32-5.81c.28-.49.1-1.31-.5-1.65-.6-.35-1.4-.09-1.68.4l-3.32,5.81c-.28.49-.09,1.3.51,1.64"/><path class="cls-2" d="M55.78,65.57c.6-.34.78-1.16.5-1.64l-3.34-5.8c-.28-.49-1.08-.75-1.68-.4-.6.34-.78,1.16-.5,1.65l3.33,5.8c.28.49,1.07.74,1.68.39"/><path class="cls-2" d="M19.47,55.78c.34.6,1.16.78,1.64.5l5.8-3.34c.49-.28.75-1.08.4-1.68-.34-.6-1.16-.78-1.65-.5l-5.8,3.34c-.49.28-.74,1.07-.39,1.68"/><path class="cls-2" d="M42.52,24.97c.69,0,1.25-.61,1.25-1.17v-6.69c0-.56-.56-1.18-1.25-1.18s-1.26.62-1.26,1.18v6.69c0,.56.57,1.17,1.26,1.17"/><path class="cls-2" d="M27.29,33.8c.34-.6.09-1.39-.4-1.67l-5.81-3.32c-.49-.28-1.31-.1-1.65.5-.34.6-.09,1.4.4,1.68l5.81,3.32c.49.28,1.3.09,1.64-.51"/><path class="cls-2" d="M51.24,27.29c.6.34,1.39.09,1.67-.4l3.32-5.81c.28-.49.1-1.31-.5-1.65-.6-.35-1.4-.09-1.68.4l-3.32,5.81c-.28.49-.09,1.3.51,1.64"/><path class="cls-2" d="M33.77,27.31c.6-.35.78-1.16.5-1.64l-3.34-5.8c-.28-.49-1.08-.75-1.68-.4-.6.34-.78,1.16-.5,1.65l3.33,5.8c.28.49,1.07.74,1.68.39"/><path class="cls-2" d="M57.73,33.78c.34.6,1.16.78,1.64.5l5.8-3.34c.49-.28.75-1.08.4-1.68-.35-.6-1.16-.78-1.65-.5l-5.8,3.34c-.49.28-.74,1.07-.39,1.68"/><rect class="cls-1" width="85.04" height="85.04"/></svg>