<?xml version="1.0" encoding="UTF-8"?><svg id="katman_1" xmlns="http://www.w3.org/2000/svg" viewBox="0 0 85.04 85.04"><defs><style>.cls-1{fill:none;stroke:#931831;stroke-miterlimit:10;}.cls-2{fill:#931831;}</style></defs><path class="cls-2" d="M62.76,28.56l-10.6,10.08c-.4.4-.6.69-.6,1.51v28.26c0,.33.27.6.6.6h10.95c.33,0,.6-.27.6-.6V28.82c0-.33-.26-.94-.95-.26"/><path class="cls-2" d="M32.23,41.7l-10.6,10.08c-.4.4-.6.69-.6,1.51v15.12c0,.33.27.6.6.6h10.95c.33,0,.6-.27.6-.6v-26.46c0-.33-.26-.94-.95-.25"/><path class="cls-2" d="M67.58,16.34c0-.08-.03-.17-.09-.23-.06-.05-.13-.08-.2-.09h-.06s-.09,0-.09,0l-8.11,1.83h-.15c-.06.03-.11.05-.16.1-.12.12-.12.32,0,.44l.09.09,1.85,1.85-18.39,18.39-8.49-8.49c-.1-.1-.25-.1-.35,0l-2.31,2.3s0,0,0,0l-13.62,13.61c-.09.1-.09.25,0,.35l2.31,2.31c.09.1.25.1.34,0l13.45-13.44,6.16,6.16s0,.02.02.03l2.31,2.3c.1.1.25.1.35,0l20.87-20.87,1.95,1.95c.12.12.32.12.43,0,.06-.06.09-.13.09-.2v-.02s1.78-8.29,1.78-8.29v-.09Z"/><path class="cls-2" d="M47.56,43.47l-5.13,5.17c-.1.08-.24.08-.33-.01l-4.65-4.74c-.85-.85-1.03-.16-1.03.17v24.35c0,.33.27.6.6.6h10.95c.33,0,.6-.27.6-.6v-24.76c0-.33-.26-.94-1.01-.19"/><rect class="cls-1" width="85.04" height="85.04"/></svg>