<?xml version="1.0" encoding="UTF-8"?><svg id="katman_1" xmlns="http://www.w3.org/2000/svg" viewBox="0 0 85.04 85.04"><defs><style>.cls-1{fill:#ec6411;}.cls-2{fill:none;stroke:#ec6411;stroke-miterlimit:10;}</style></defs><path class="cls-1" d="M67.31,60.53l-11.13,6.42v-12.85l11.13-6.42v12.85ZM30.55,66.95v-11.87l10.28,5.94-10.28,5.93ZM28.86,66.95l-11.12-6.42v-12.85l11.12,6.42v12.85ZM40.83,31.42l-10.28,5.94v-11.87l10.28,5.93ZM54.49,37.36l-10.28-5.94,10.28-5.93v11.87ZM44.21,46.22l11.12-6.42,11.13,6.42-11.13,6.42-11.12-6.42ZM41.67,44.75l-10.28-5.93,10.28-5.94v11.87ZM53.64,38.82l-10.28,5.93v-11.87l10.28,5.94ZM41.67,59.55l-10.28-5.94,10.28-5.94v11.87ZM68.57,45.49l-12.4-7.15v-14.31c0-.3-.16-.58-.42-.73l-12.82-7.4c-.26-.15-.58-.15-.85,0l-12.82,7.4c-.26.15-.42.43-.42.73v14.31l-12.39,7.15c-.26.15-.42.43-.42.73v14.8c0,.3.16.58.42.73l12.82,7.4c.13.08.28.11.42.11s.29-.04.42-.11l12.39-7.15,12.39,7.15c.13.08.28.11.42.11s.29-.04.42-.11l12.82-7.4c.26-.15.42-.43.42-.73v-14.8c0-.3-.16-.58-.42-.73"/><rect class="cls-2" width="85.04" height="85.04"/></svg>